<?xml version="1.0" encoding="UTF-8" standalone="no"?>
<!-- Created with Inkscape (http://www.inkscape.org/) -->
<svg
   xmlns:svg="http://www.w3.org/2000/svg"
   xmlns="http://www.w3.org/2000/svg"
   version="1.0"
   width="64"
   height="64"
   id="svg4352">
  <defs
     id="defs4354" />
  <g
     id="layer1">
    <g
       id="g4431">
      <path
         d="M 22.8675,31.879862 C 22.8675,31.568554 22.8675,31.257247 22.8675,30.94594 C 22.8675,30.012018 22.8675,29.078096 22.8675,28.144175 C 22.8675,27.210253 22.8675,26.276331 22.8675,25.34241 C 22.8675,24.283964 22.8675,23.22552 22.8675,22.167075 C 22.8675,21.046369 22.8675,19.925663 22.8675,18.804957 C 22.8675,17.746513 22.8675,16.688068 22.8675,15.629623 C 22.8675,14.322595 22.850044,13.014087 22.8675,11.707152 C 22.870836,11.457418 22.874172,11.207684 22.877507,10.957951 C 22.571482,12.071237 23.134376,8.6236801 23.698659,7.5972796 C 24.357212,6.3994082 25.340963,6.7817868 25.340963,5.1701294 C 25.340963,4.2591671 26.911929,4.1131987 27.599132,3.8632016 C 27.7412,3.8115182 27.872849,3.7387323 28.009708,3.6764982 C 28.957671,3.2454234 28.744133,2.4983692 29.036148,1.4360504 C 29.394459,0.1325545 30.473164,2.1003919 30.473164,2.7429773 C 30.473164,3.388033 32.442792,3.1163851 33.141908,3.1163851 C 33.934445,3.1163851 34.547948,4.3106259 34.784212,5.1701294 C 35.020579,6.0300055 35.297566,6.7572339 35.810653,7.2238718 C 36.505524,7.8558389 36.837093,7.9660738 36.837093,9.0909107 C 36.837093,9.8185542 37.247669,10.510359 37.247669,11.331358 C 37.247669,13.183387 38.791579,13.99883 39.117738,15.629623 C 39.546181,17.771838 39.491307,19.933245 39.491307,22.167075 C 39.491307,24.218926 39.262703,25.966898 38.930954,27.95739 C 38.640851,29.698007 38.146359,31.320012 37.810248,33.000568 C 37.626235,33.920634 37.436679,34.48847 37.436679,35.615549 C 37.436679,35.813335 36.653613,37.066757 36.502757,37.670176 C 36.238552,38.727001 36.163128,39.775832 35.942405,40.658726 C 35.663292,41.775175 34.091659,42.871642 33.514208,43.834059 C 33.058916,44.59288 32.257121,44.836172 31.646364,45.14155 C 30.833361,45.548052 29.633818,46.427999 28.47103,47.009394 C 27.469986,47.509916 26.391404,46.909401 26.229618,46.262256 C 26.175172,46.044472 25.980572,45.888688 25.856049,45.701903"
         style="fill:#ff7f2a;fill-opacity:1;fill-rule:evenodd;stroke:#000000;stroke-width:0.09690398px;stroke-linecap:butt;stroke-linejoin:miter;stroke-opacity:1"
         id="path2334" />
      <path
         d="M 15.769694,48.1301 C 16.703616,48.1301 14.315145,49.465474 14.088636,50.371512 C 13.88501,51.186014 14.088636,52.328739 14.088636,53.173277 C 14.088636,54.16946 14.088636,55.165643 14.088636,56.161827 C 14.088636,57.504369 13.997808,57.726786 15.209342,58.02967 C 15.752964,58.165576 14.958745,59.209534 15.209342,59.710728 C 15.225365,59.742776 17.494178,58.776807 17.824322,58.776807 C 18.990362,58.776807 18.236818,59.393588 19.505382,59.710728 C 20.448972,59.946626 21.74863,59.70981 22.493931,59.33716 C 23.250314,58.958968 23.520583,58.310509 24.17499,57.656101 C 24.642564,57.188528 25.427182,56.749828 26.229618,56.34861 C 26.760343,56.083248 27.142496,54.896423 27.350324,54.480767 C 27.433857,54.313703 27.350324,54.107198 27.350324,53.920414"
         style="fill:#ff7f2a;fill-rule:evenodd;stroke:#000000;stroke-width:0.09245353px;stroke-linecap:butt;stroke-linejoin:miter;stroke-opacity:1"
         id="path2340" />
      <path
         d="M 22.493931,28.704528 C 21.762673,28.704528 20.77059,28.880741 20.065735,28.704528 C 18.704273,28.364162 18.80145,28.553638 17.450754,28.891312 C 15.981304,29.258675 14.690236,29.908314 13.528283,30.198802 C 12.001046,30.580611 10.234966,30.78865 8.8586743,31.132724 C 8.1950771,31.132724 7.4564907,31.693077 6.9908309,31.693077 C 7.2086145,32.564214 5.3843633,32.552407 4.7494184,33.187352 C 4.1787406,33.758029 3.9229439,34.200611 3.4419285,34.681626 C 2.7368584,35.386696 3.0024552,35.725417 1.9476538,35.989117 C 0.4960852,36.352009 1.776771,36.752156 2.3212224,37.296607 C 2.9423419,37.917728 1.0187981,38.785816 0.82694774,38.977667 C 0.31280624,39.491808 0.68620387,41.029673 0.82694774,41.592647 C 0.93082483,42.008158 2.0734165,42.652331 2.3212224,42.900138 C 2.9450018,43.523918 3.8889838,43.720762 4.3758497,44.207628 C 4.9005734,44.732351 5.9639083,44.581197 6.8040462,44.581197 C 7.6803734,44.581197 8.5753412,44.954765 9.6058117,44.954765 C 10.539733,44.954765 11.473655,44.954765 12.407576,44.954765 C 12.843407,44.954765 13.279236,44.954765 13.715067,44.954765 C 14.026375,44.892504 14.337682,44.830242 14.648989,44.767981 C 16.487083,44.400363 18.535997,44.550933 20.252519,44.207628 C 20.786729,44.100786 21.543283,43.188677 22.120363,42.900138 C 22.626126,42.647256 23.100828,41.546104 23.427854,41.219079 C 23.993689,40.653244 24.621178,40.399323 25.108912,39.911589 C 25.779315,39.241186 26.11616,39.006031 26.976755,38.790883 C 27.286336,38.713487 27.701893,38.25253 27.910678,38.043744 C 28.221985,38.043744 28.533292,38.043744 28.8446,38.043744 C 29.605564,38.043745 30.326506,36.877267 30.712443,36.362686 C 31.28862,35.59445 31.58464,35.116921 32.206718,34.494843 C 32.654879,34.046681 32.633175,33.722934 32.76707,33.187352"
         style="fill:#ff7f2a;fill-opacity:1;fill-rule:evenodd;stroke:#000000;stroke-width:0.09245353px;stroke-linecap:butt;stroke-linejoin:miter;stroke-opacity:1"
         id="path2338" />
      <path
         d="M 20.439304,30.385587 C 19.053606,30.385587 18.267706,29.486573 17.077185,28.891312 C 15.860461,28.891312 15.115371,28.844327 14.088636,28.330959 C 13.010214,27.791748 12.482379,26.66871 11.847224,25.715978 C 10.438761,23.603283 8.6284095,20.041376 8.6718895,17.310683 C 8.6718895,16.778768 8.6718895,15.055732 8.6718895,13.948565 C 8.6718895,12.74785 9.3740769,12.278743 10.166164,12.080721 C 11.135696,11.838338 10.539733,10.417103 10.539733,9.6525243 C 10.539733,8.3385442 11.618711,9.2426916 12.220792,9.0921708 C 12.862106,8.9318425 13.216261,8.5318183 14.462204,8.5318183 C 15.533981,8.5318183 16.305173,8.6127734 16.890401,8.9053869 C 17.748334,9.3343538 18.939945,9.6045576 19.878951,9.8393082 C 20.906675,10.09624 21.686996,10.369763 22.493931,10.77323 C 23.670089,11.36131 24.009356,10.857828 24.361775,12.267505 C 24.432021,12.54849 25.836458,13.486611 26.042833,13.76178 C 26.523946,14.403263 27.124297,14.430432 27.537109,15.256054 C 27.920958,16.023753 27.942394,17.250765 28.097461,17.871035 C 28.326671,18.787874 28.81748,19.070051 29.031384,19.925663 C 29.176221,20.505017 29.25682,21.014193 29.404952,21.606723 C 29.724211,21.766352 30.054413,23.08386 30.15209,23.474566"
         style="fill:#ff7f2a;fill-opacity:1;fill-rule:evenodd;stroke:#000000;stroke-width:0.09245353px;stroke-linecap:butt;stroke-linejoin:miter;stroke-opacity:1"
         id="path2336" />
      <path
         d="M 36.502757,30.385586 C 37.436679,30.385586 38.3706,30.385586 39.304523,30.385586 C 40.362967,30.385586 41.421412,30.385586 42.479856,30.385586 C 43.754854,30.385586 45.188204,30.26884 46.402327,30.572371 C 47.286384,30.793385 48.574982,31.319508 49.577662,31.319508 C 50.712249,31.319508 51.533622,31.43493 52.566211,31.693077 C 52.815257,31.755339 53.064303,31.8176 53.313348,31.879862 C 54.19806,32.101039 55.187628,32.163256 56.115113,32.626999 C 56.364159,32.751522 56.613205,32.876045 56.86225,33.000568 C 57.82636,33.482622 58.98843,34.006041 59.664016,34.681626 C 60.178883,35.196494 61.264472,35.534946 61.718644,35.989117 C 62.112652,36.383125 63.212919,37.197673 63.212919,37.856961 C 63.212919,38.393218 63.514893,40.256093 63.212919,40.658725 C 62.715429,41.322045 62.459266,41.974902 61.905428,42.713353 C 61.309641,43.507736 60.971507,43.616745 60.971507,44.954765 C 60.971507,46.339308 60.780873,46.450965 59.664016,47.009394 C 58.661488,47.510657 57.703435,47.569746 56.488682,47.569746 C 55.492499,47.569746 54.496315,47.569746 53.500132,47.569746 C 51.943597,47.569746 47.585294,46.635825 48.830524,47.569746 C 45.327968,45.746377 41.255325,44.850939 38.3706,41.966216 C 37.137788,40.733404 35.660219,39.186293 34.634914,38.417314 C 34.228281,38.112338 33.687591,37.753518 33.327424,37.483392"
         style="fill:#ff7f2a;fill-opacity:1;fill-rule:evenodd;stroke:#000000;stroke-width:0.09245353px;stroke-linecap:butt;stroke-linejoin:miter;stroke-opacity:1"
         id="path2328" />
      <path
         d="M 26.042833,24.782056 C 25.700396,24.439618 25.077781,24.377356 24.735343,24.034919 C 23.978816,23.278392 23.651339,23.137699 22.8675,22.35386 C 22.374305,21.860664 21.734303,21.650295 20.812872,21.419938 C 19.866003,21.183221 19.369495,21.301017 18.758245,20.486016 C 18.227008,19.777702 18.04607,19.000482 17.26397,18.804957 C 16.535713,18.622893 15.721376,18.594013 15.022557,18.244604 C 14.286266,17.876458 13.823476,17.944833 12.781145,17.684251 C 11.970502,17.48159 11.056435,17.310683 10.166164,17.310683 C 9.0052982,17.310683 8.2559873,17.601442 7.1776148,17.871035 C 5.8510956,18.202665 6.0351317,18.815846 5.3097718,19.178526 C 5.0450025,19.31091 3.0683598,19.582531 3.0683598,19.925663 C 3.0683598,20.227876 3.2482475,22.637484 3.0683598,22.727429 C 2.3619612,23.080627 1.6621748,22.903609 2.1344376,23.848135 C 2.4579076,24.495074 2.6800725,25.283534 2.881575,26.089547 C 3.1001897,26.964005 3.1954159,27.337309 3.8154971,27.95739 C 4.2824577,28.424351 5.0295951,28.611136 5.4965557,29.078096 C 5.9842906,29.56583 6.7985637,29.632966 7.3643996,30.198802 C 7.886824,30.721227 8.4380172,31.109179 9.232243,31.506293 C 9.7185763,31.74946 10.301842,32.474134 10.913302,32.626999 C 11.674885,32.817394 12.302181,33.56092 13.341498,33.56092 C 14.27542,33.56092 15.209342,33.56092 16.143263,33.56092 C 17.077185,33.56092 18.011107,33.56092 18.945029,33.56092 C 19.807415,33.56092 20.413761,33.386907 21.186441,33.000568 C 21.949152,32.619212 22.560566,32.096683 23.427853,31.879862 C 24.136593,31.702676 25.536534,31.319508 26.042833,31.319508 C 27.052102,31.319508 28.909982,30.815173 28.097461,32.440214 C 27.787449,32.595221 26.835626,32.909258 26.603187,33.374136 C 26.107435,34.365639 23.988206,34.32023 23.988206,35.428764 C 23.182075,35.83183 22.32867,36.357305 21.560009,36.54947 C 20.847714,36.727544 19.865403,37.12337 19.318597,37.670176 C 18.836496,38.152277 17.893041,38.16181 17.26397,38.790882 C 16.924218,39.130634 15.908803,39.820157 15.58291,40.471941 C 15.218313,41.201135 14.558681,41.682955 13.901851,42.339785 C 13.1486,43.093037 13.154714,43.777061 13.154714,44.954765 C 13.154714,46.177773 13.720204,47.440597 14.217201,48.084005 C 15.670386,47.720709 15.427012,49.341601 16.189357,49.532187 C 16.754964,49.673588 16.486984,50.864357 17.368283,51.084681 C 18.385122,51.338891 18.758245,51.359519 18.758245,52.42614 C 18.758245,52.870148 20.823363,52.898345 21.373225,53.173277 C 22.508968,53.741148 22.7035,53.032062 23.241069,54.107198 C 23.441151,54.507364 24.131451,55.486311 24.735343,55.788258 C 25.739899,56.290536 26.946096,55.157507 27.350324,54.854336 C 28.255276,54.175622 28.544351,54.707694 29.031384,53.73363 C 29.493882,52.808633 29.279079,52.033617 29.965305,51.118649 C 30.200423,50.805158 30.15209,48.717718 30.15209,48.316883 C 30.15209,47.382962 30.15209,46.44904 30.15209,45.515119 C 30.15209,44.318788 30.656415,44.058167 30.899227,43.086922 C 31.111767,42.236763 31.068692,41.475136 31.272796,40.658725 C 31.495283,39.768776 31.831418,39.171373 32.019933,38.417313 C 32.259142,37.460476 32.76707,37.158944 32.76707,35.989117 C 32.76707,35.24198 32.76707,34.494843 32.76707,33.747705 L 32.953854,36.54947 C 32.953854,36.798516 32.953854,37.047561 32.953854,37.296607 C 32.953855,38.039452 31.924827,38.607525 31.646364,39.16445 C 31.377055,39.70307 31.561555,41.371532 31.45958,41.779432 C 31.33101,42.29371 30.651262,43.022499 30.338874,43.647275 C 29.894374,44.536275 29.965305,45.416973 29.965305,46.44904 C 29.965305,47.297796 30.15209,48.036638 30.15209,49.064021 C 30.15209,50.48549 30.712442,50.154421 30.712442,51.492218 C 30.712442,52.314849 31.044805,53.382022 31.272796,54.293983 C 31.49381,55.178043 32.511616,56.211271 32.76707,56.722179 C 33.135261,57.458561 33.787194,58.216454 35.008482,58.216454 C 35.929835,58.216454 36.390626,59.249914 36.876326,59.897513 C 37.536878,60.77825 38.489537,61.510724 39.117738,62.138925 C 39.585548,62.606736 40.609796,62.512494 41.545935,62.512494 C 42.222696,62.512494 43.0443,62.138925 44.160915,62.138925 C 45.624208,62.138925 45.625305,62.198695 46.215543,61.018219 C 46.601562,60.246182 47.122956,60.090925 47.896602,59.897513 C 48.309831,59.794206 48.545141,58.050492 48.643739,57.656101 C 48.87141,56.745419 48.830524,55.821754 48.830524,54.854336 C 48.830524,54.611665 49.978541,53.571959 50.138014,53.173277 C 50.42029,52.467588 50.511583,51.780451 50.511583,50.74508 C 50.511583,49.841313 49.244449,49.038663 49.017308,48.1301 C 48.737583,47.011198 48.849497,46.67377 48.456956,45.888688 C 47.961688,44.898152 47.626127,44.158301 46.96268,43.273707 C 46.474832,42.623242 45.964186,42.104571 45.281621,41.592647 C 44.598727,41.080477 44.140073,40.451099 43.600562,39.911588 C 42.826707,39.137733 42.387894,38.371332 41.35915,37.856961 C 40.660829,37.5078 39.962173,36.646768 39.491307,36.175901 C 38.672329,35.356924 37.843552,35.080174 37.06311,34.494843 C 36.315953,33.934474 35.525364,33.51745 35.008482,33.000568"
         style="fill:#ff7f2a;fill-opacity:1;fill-rule:evenodd;stroke:#000000;stroke-width:0.09245353px;stroke-linecap:butt;stroke-linejoin:miter;stroke-opacity:1"
         id="path2324" />
      <path
         d="M 36.502757,24.034919 C 36.689542,24.034919 36.876326,24.034919 37.063111,24.034919 C 38.346455,24.034919 38.592167,23.550568 39.491307,23.100997 C 40.263663,22.714819 41.088501,22.001257 41.919503,21.793507 C 43.101386,21.498036 44.080752,21.46002 45.281621,20.859585 C 46.847593,20.076599 48.845108,19.325037 50.511584,18.991742 C 50.822891,18.92948 51.134198,18.867219 51.445505,18.804957 C 51.733701,18.732908 51.749109,18.729057 52.192642,18.618172 C 53.128774,18.384139 54.150696,18.431389 55.181192,18.431389 C 56.491352,18.431389 57.252376,18.439667 58.356526,18.991741 C 59.120542,19.37375 59.483831,19.928963 60.597938,20.486016 C 61.436907,20.905501 62.188345,21.538733 63.026134,22.167075 C 64.243797,23.080322 63.958884,23.479256 63.586487,24.968841 C 63.440267,25.55372 62.602587,26.663029 62.465781,27.210253 C 62.269449,27.995583 61.85813,28.751826 61.345075,29.26488 C 60.680946,29.929009 60.13292,30.50087 59.290447,31.132724 C 57.491671,32.481806 53.846392,32.813783 54.807623,32.813783 C 52.819467,32.813783 48.601489,35.24198 44.908053,35.24198 C 43.342263,35.24198 41.757566,34.787442 40.798797,34.308058 C 39.827258,33.822288 39.392239,34.022205 38.744169,33.374136 C 38.444279,33.224191 38.121555,33.125091 37.810248,33.000568 C 37.400843,32.836806 37.196507,32.600305 36.876326,32.440214"
         style="fill:#ff7f2a;fill-opacity:1;fill-rule:evenodd;stroke:#000000;stroke-width:0.09245353px;stroke-linecap:butt;stroke-linejoin:miter;stroke-opacity:1"
         id="path2330" />
      <path
         d="M 35.568835,28.704528 C 34.264925,29.030505 38.289161,28.371679 39.491307,27.770605 C 40.762689,27.134914 42.12474,26.530448 43.226993,26.089547 C 43.889614,25.824498 44.857179,24.633427 45.65519,24.034919 C 46.647778,23.290478 47.22182,22.841858 48.083387,21.980291 C 48.87818,21.185497 49.288183,20.58871 49.95123,19.925663 C 50.459889,19.417003 50.644121,18.353097 50.885152,17.871035 C 51.29767,17.046 51.430205,16.064392 51.632289,15.256054 C 52.028575,13.670911 51.862766,13.718087 53.126564,12.45429 C 54.290063,11.290791 54.434054,12.231112 54.434054,10.212877 C 54.434054,9.1246054 54.442247,8.361419 54.060486,7.5978963 C 53.937007,7.3509391 52.126096,6.5974289 51.819074,6.2904064 C 51.2926,5.7639325 51.819074,4.5322749 51.819074,3.8622096 C 51.819074,2.5612913 51.118366,2.9282883 49.95123,2.9282883 C 48.942329,2.9282883 47.898698,2.9277641 47.149465,3.1150722 C 46.145938,3.3659541 45.499233,3.8313828 44.908053,4.422563 C 44.302969,5.0276455 44.114485,5.5896983 43.600562,6.1036216 C 43.05012,6.6540641 42.080723,6.4771903 41.172366,6.4771903 C 40.725663,6.4771903 39.721416,8.1365868 39.304523,8.3450335 C 38.384017,8.8052866 38.079987,8.981565 37.436679,9.8393082 C 36.933851,10.509746 36.612354,11.674743 36.315972,12.267505 C 35.983602,12.932248 35.899434,14.221288 35.568835,14.882486 C 35.254692,15.510773 35.039003,16.44146 34.821698,17.310683 C 34.596848,18.210082 34.119771,18.250547 33.887776,19.178526 C 33.655019,20.109556 33.514208,20.764592 33.514208,21.793507"
         style="fill:#ff7f2a;fill-opacity:1;fill-rule:evenodd;stroke:#000000;stroke-width:0.09245353px;stroke-linecap:butt;stroke-linejoin:miter;stroke-opacity:1"
         id="path2332" />
      <path
         d="M 26.042833,29.825234 C 26.404808,29.101285 24.186968,30.397565 23.614637,29.825234 C 23.276491,29.487088 22.712905,29.483854 21.933578,28.704528 C 21.091084,27.862034 22.935232,28.114411 23.054284,28.144174 C 24.157912,28.420081 25.143468,28.407073 25.669265,28.144174 C 26.303952,27.826831 26.042833,29.689918 26.042833,29.825234 z "
         style="fill:#ffe200;fill-opacity:1;fill-rule:evenodd;stroke:#000000;stroke-width:0.09245353px;stroke-linecap:butt;stroke-linejoin:miter;stroke-opacity:1"
         id="path2342" />
      <path
         d="M 25.108912,25.902762 C 25.81332,25.550558 23.571908,25.507829 22.8675,25.155625 C 22.339194,24.891472 22.450404,24.047594 22.307147,23.474566 C 22.02423,22.342898 19.852134,22.647444 21.933578,21.606723 C 22.678683,21.23417 23.643986,20.416626 23.988206,21.793507 C 24.255233,22.861615 24.548559,23.594493 24.548559,24.782056 C 24.548559,25.199719 24.922127,25.529193 25.108912,25.902762 z "
         style="fill:#ffe200;fill-opacity:1;fill-rule:evenodd;stroke:#000000;stroke-width:0.09245353px;stroke-linecap:butt;stroke-linejoin:miter;stroke-opacity:1"
         id="path2344" />
      <path
         d="M 26.042833,22.727429 C 26.042833,22.729146 24.584683,21.233154 26.416402,21.233154 C 27.421621,21.233154 27.178047,22.411889 27.350324,23.100997 C 27.313424,23.093587 26.202816,23.064603 26.191463,23.040676 C 26.141919,22.936261 26.092376,22.831845 26.042833,22.727429 z "
         style="fill:#ffe200;fill-opacity:1;fill-rule:evenodd;stroke:#000000;stroke-width:0.09245353px;stroke-linecap:butt;stroke-linejoin:miter;stroke-opacity:1"
         id="path2346" />
      <path
         d="M 26.603187,20.486016 C 26.794278,21.250383 24.434451,19.606602 24.361775,19.552095 C 23.928341,19.22702 24.357956,17.51274 24.361775,17.497466 C 24.525016,16.844499 25.265209,17.562304 25.482481,18.431389 C 25.75527,19.522542 27.090264,18.537704 26.603187,20.486016"
         style="fill:#ffe200;fill-opacity:1;fill-rule:evenodd;stroke:#000000;stroke-width:0.09245353px;stroke-linecap:butt;stroke-linejoin:miter;stroke-opacity:1"
         id="path2348" />
      <path
         d="M 30.338874,22.540644 C 30.133483,23.362206 31.011586,20.691407 31.833148,20.486016 C 32.497576,20.319909 32.139434,21.928073 31.833148,22.540644 C 31.610395,22.986151 30.836965,22.540644 30.338874,22.540644 z "
         style="fill:#ffe200;fill-opacity:1;fill-rule:evenodd;stroke:#000000;stroke-width:0.09245353px;stroke-linecap:butt;stroke-linejoin:miter;stroke-opacity:1"
         id="path2350" />
      <path
         d="M 32.436879,23.05762 C 31.590444,24.750491 33.3708,20.004987 33.3708,22.684051 C 33.3708,24.751819 32.494151,22.799894 32.810448,21.376561"
         style="fill:#ffe200;fill-opacity:1;fill-rule:evenodd;stroke:#000000;stroke-width:0.09245353px;stroke-linecap:butt;stroke-linejoin:miter;stroke-opacity:1"
         id="path2352" />
      <path
         d="M 34.295336,21.455873 C 34.295336,22.336383 34.275129,19.628445 34.668904,18.840892 C 35.340592,17.497516 35.391761,20.196944 35.229258,20.521952 C 35.145725,20.689016 34.855689,20.521952 34.668904,20.521952"
         style="fill:#ffe200;fill-opacity:1;fill-rule:evenodd;stroke:#000000;stroke-width:0.09245353px;stroke-linecap:butt;stroke-linejoin:miter;stroke-opacity:1"
         id="path2354" />
      <path
         d="M 35.831044,23.255735 C 35.356876,24.204073 37.198967,21.201107 38.259241,21.201107 C 39.711805,21.201107 38.341877,22.79953 38.072457,23.06895 C 37.412615,23.728793 36.9968,23.838612 35.831044,23.255735 z "
         style="fill:#ffe200;fill-opacity:1;fill-rule:evenodd;stroke:#000000;stroke-width:0.09245353px;stroke-linecap:butt;stroke-linejoin:miter;stroke-opacity:1"
         id="path2356" />
      <path
         d="M 37.313989,27.330998 C 36.812021,27.832966 38.866649,26.268677 39.368617,26.770646 C 40.19578,27.597809 37.091938,27.516041 36.193283,28.26492 C 35.855069,28.546765 35.939812,26.957429 36.380068,26.957429 C 38.870525,26.957429 35.757452,27.953613 38.247911,26.957429"
         style="fill:#ffe200;fill-opacity:1;fill-rule:evenodd;stroke:#000000;stroke-width:0.09245353px;stroke-linecap:butt;stroke-linejoin:miter;stroke-opacity:1"
         id="path2358" />
      <path
         d="M 37.249894,33.747705 C 38.51328,33.747705 34.575944,32.641741 36.876326,32.066646 C 37.601483,31.885356 37.287564,33.597029 37.249894,33.747705 z "
         style="fill:#ffe200;fill-opacity:1;fill-rule:evenodd;stroke:#000000;stroke-width:0.09245353px;stroke-linecap:butt;stroke-linejoin:miter;stroke-opacity:1"
         id="path2360" />
      <path
         d="M 30.231402,31.670417 C 31.102539,31.452632 28.737127,33.013881 28.737127,33.911829 C 28.737127,34.582405 30.130801,33.638861 30.604971,33.164691 C 30.92649,32.843172 30.844435,32.566031 30.978539,32.23077 L 30.231402,31.670417 z "
         style="fill:#ffe200;fill-opacity:1;fill-rule:evenodd;stroke:#000000;stroke-width:0.09245353px;stroke-linecap:butt;stroke-linejoin:miter;stroke-opacity:1"
         id="path2362" />
      <path
         d="M 27.329607,30.757211 C 28.001627,30.085191 25.751456,31.826463 24.90141,32.251486 C 23.787574,32.808404 24.380593,33.539209 25.461764,32.998624 C 26.354508,32.55225 27.442089,32.38203 28.450313,31.877917 C 29.099746,31.553201 27.329607,30.736161 27.329607,30.010073"
         style="fill:#ffe200;fill-opacity:1;fill-rule:evenodd;stroke:#000000;stroke-width:0.09245353px;stroke-linecap:butt;stroke-linejoin:miter;stroke-opacity:1"
         id="path2364" />
      <path
         d="M 29.746474,29.374296 C 30.348835,29.073116 28.46243,28.34659 28.625768,27.693238 C 28.772961,27.104466 30.992963,27.444507 31.240749,27.506453 C 32.631569,27.854158 32.078046,29.470921 31.427533,30.121433 C 30.463372,31.085594 29.534597,30.43368 29.746474,29.374296 z "
         style="fill:#ffe200;fill-opacity:1;fill-rule:evenodd;stroke:#000000;stroke-width:0.09245353px;stroke-linecap:butt;stroke-linejoin:miter;stroke-opacity:1"
         id="path2366" />
      <path
         d="M 26.482441,28.385666 C 25.899541,28.968566 26.665375,25.965173 26.669225,25.957471 C 26.721152,25.853617 27.764736,27.532539 27.976716,27.638529 C 28.479657,27.89 28.242363,29.44162 26.482441,28.385666 z "
         style="fill:#ffe200;fill-opacity:1;fill-rule:evenodd;stroke:#000000;stroke-width:0.09245353px;stroke-linecap:butt;stroke-linejoin:miter;stroke-opacity:1"
         id="path2368" />
      <path
         d="M 33.327423,28.704528 C 34.33699,29.209311 34.704922,29.685216 34.07456,30.94594 C 33.329187,32.436686 34.69064,32.687626 32.953854,32.25343 C 32.022055,32.02048 32.313161,31.106622 32.580286,30.572371 C 33.212141,29.308661 32.919859,27.804602 33.887776,26.836684"
         style="fill:#ffe200;fill-opacity:1;fill-rule:evenodd;stroke:#000000;stroke-width:0.09245353px;stroke-linecap:butt;stroke-linejoin:miter;stroke-opacity:1"
         id="path2370" />
      <path
         d="M 34.821698,26.463116 C 35.04004,26.026432 34.042201,24.4857 35.75562,25.34241 C 36.71374,25.82147 35.192597,26.537296 34.821698,26.463116 z "
         style="fill:#ffe200;fill-opacity:1;fill-rule:evenodd;stroke:#000000;stroke-width:0.09245353px;stroke-linecap:butt;stroke-linejoin:miter;stroke-opacity:1"
         id="path2372" />
      <path
         d="M 27.350324,24.968841 C 28.20037,25.393864 29.018216,24.044794 29.778521,23.474566 C 30.857552,22.665293 30.902649,24.218282 30.338874,24.782056 C 29.740425,25.380505 28.888958,25.867156 28.284246,25.715978 C 27.897482,25.619287 27.669258,25.208041 27.350324,24.968841 z "
         style="fill:#ffe200;fill-opacity:1;fill-rule:evenodd;stroke:#000000;stroke-width:0.09245353px;stroke-linecap:butt;stroke-linejoin:miter;stroke-opacity:1"
         id="path2374" />
      <path
         d="M 31.833148,24.968841 C 30.583882,24.656524 32.768053,27.771589 32.953854,27.95739 C 34.040393,29.043929 34.721196,27.296535 33.887776,26.463116 C 33.014736,25.590075 32.839225,25.444244 32.580286,24.408487 C 32.306917,23.315014 30.918374,27.255777 32.206717,24.034919"
         style="fill:#ffe200;fill-opacity:1;fill-rule:evenodd;stroke:#000000;stroke-width:0.09245353px;stroke-linecap:butt;stroke-linejoin:miter;stroke-opacity:1"
         id="path2376" />
    </g>
  </g>
</svg>
